<?xml version="1.0" encoding="UTF-8" standalone="no"?><!DOCTYPE svg PUBLIC "-//W3C//DTD SVG 1.1//EN" "http://www.w3.org/Graphics/SVG/1.1/DTD/svg11.dtd"><svg width="100%" height="100%" viewBox="0 0 1000 1000" version="1.1" xmlns="http://www.w3.org/2000/svg" xmlns:xlink="http://www.w3.org/1999/xlink" xml:space="preserve" style="fill-rule:evenodd;clip-rule:evenodd;stroke-linejoin:round;stroke-miterlimit:1.41421;"><rect x="0" y="1" width="1002" height="999" style="fill:#ffb000;"/><rect x="89" y="89" width="822" height="822" style="fill:#faff00;fill-opacity:0.521569;"/><path id="path3611" d="M444.719,621.094c112.46,0 173.956,-93.168 173.956,-173.957c0,-2.646 -0.054,-5.28 -0.173,-7.903c11.938,-8.63 22.315,-19.4 30.498,-31.66c-10.955,4.87 -22.744,8.148 -35.111,9.626c12.624,-7.569 22.315,-19.543 26.886,-33.818c-11.813,7.004 -24.895,12.093 -38.824,14.841c-11.157,-11.884 -27.04,-19.317 -44.629,-19.317c-33.763,0 -61.144,27.381 -61.144,61.133c0,4.798 0.537,9.464 1.586,13.94c-50.816,-2.556 -95.874,-26.885 -126.026,-63.88c-5.251,9.036 -8.278,19.532 -8.278,30.731c0,21.211 10.793,39.938 27.207,50.892c-10.031,-0.309 -19.453,-3.063 -27.69,-7.646c-0.009,0.256 -0.009,0.506 -0.009,0.781c0,29.609 21.075,54.331 49.051,59.934c-5.138,1.4 -10.543,2.151 -16.122,2.151c-3.934,0 -7.766,-0.387 -11.491,-1.102c7.784,24.293 30.355,41.971 57.115,42.465c-20.925,16.402 -47.287,26.171 -75.937,26.171c-4.929,0 -9.798,-0.28 -14.584,-0.846c27.059,17.343 59.189,27.464 93.722,27.464" style="fill:#fdf8c4;fill-rule:nonzero;"/><rect x="0" y="1" width="1000" height="999" style="fill:url(#_Linear1);"/><defs><linearGradient id="_Linear1" x1="0" y1="0" x2="1" y2="0" gradientUnits="userSpaceOnUse" gradientTransform="matrix(-1117,-799,799,-1117,1180,976)"><stop offset="0%" style="stop-color:#000;stop-opacity:0.462745"/><stop offset="100%" style="stop-color:#fe0;stop-opacity:0.243137"/></linearGradient></defs></svg>